# xmcd
#
# Track frame offsets:
#	150
#	14431
#	30505
#	50995
#	66371
#	78995
#	94413
#	108078
#	122693
#	136308
#	153184
#	168634
#	182120
#	194355
#	209765
#	225365
#	242525
#	260550
#	276476
#	291055
#
# Disc length: 4156 seconds
#
# Revision: 1
# Processed by: cddbd v1.5.2PL0 Copyright (c) Steve Scherf et al.
# Submitted via: audiograbber 1.83.01
#
DISCID=25103a14
DTITLE=Various Artist - BOK RADIO TOP 40 CD2
DYEAR=2013
DGENRE=Country
TTITLE0=JAYCEE CRAUSE - PRINCE CHARMING
TTITLE1=ANTON BOTHA - NET NA AGT
TTITLE2=SHAUN TAIT - BONDELTJIE LIEFDE (REMIX)
TTITLE3=DILLON LERM - LIPSTICK LIEFDE
TTITLE4=CHRISTIAAN KRITZINGER - EK ONTHOU
TTITLE5=JOHAN C VENTER MET VUYELWA BOOI - ALL THE WAY
TTITLE6=DU PREEZ - TANT HANNA
TTITLE7=ROOIES - EK'S SEXY EN EK WEET DIT
TTITLE8=WILLEM BOTHA - BREEK OP IN STEREO
TTITLE9=HUGO NIEUWOUDT - NET EEN DAG
TTITLE10=BURGER LE ROUX - BOERSEUN
TTITLE11=UNISON - EK WIL JOU HÍ
TTITLE12=JACO - IN EEN DAG OM DIE WÍRELD
TTITLE13=WYNAND BARNARD - HARTEBREKER
TTITLE14=NADIA LOUW - EK MIS JOU SO VANAAND
TTITLE15=VILJOEN RETIEF - VANAAND STEEK EK N KERSIE AAND
TTITLE16=BROERS - VERSLAAF AAN JOU
TTITLE17=CHARLIZE BERG - HELLO
TTITLE18=ISAK DAVEL - JY IS MY LEWE
TTITLE19=WYNAND STRYDOM - OSEAAN SE BLOU
EXTD=
EXTT0=
EXTT1=
EXTT2=
EXTT3=
EXTT4=
EXTT5=
EXTT6=
EXTT7=
EXTT8=
EXTT9=
EXTT10=
EXTT11=
EXTT12=
EXTT13=
EXTT14=
EXTT15=
EXTT16=
EXTT17=
EXTT18=
EXTT19=
PLAYORDER=
